# MagicaVoxel @ Ephtracy

# material
mtllib Sap.mtl
usemtl palette

# normals
vn -1 0 0
vn 1 0 0
vn 0 0 1
vn 0 0 -1
vn 0 -1 0
vn 0 1 0

# texcoords
vt 0.337891 0.5
vt 0.369141 0.5

# verts
v -1.5 0 1.5
v -1.5 0 -1.5
v -1.5 1 2.5
v -1.5 1 1.5
v -1.5 1 -1.5
v -1.5 1 -2.5
v -1.5 3 3.5
v -1.5 3 2.5
v -1.5 3 1.5
v -1.5 3 -1.5
v -1.5 3 -2.5
v -1.5 3 -3.5
v -1.5 5 0.5
v -1.5 5 -0.5
v -1.5 8 3.5
v -1.5 8 2.5
v -1.5 8 0.5
v -1.5 8 -0.5
v -1.5 8 -2.5
v -1.5 8 -3.5
v -0.5 1 1.5
v -0.5 1 -1.5
v -0.5 3 2.5
v -0.5 3 1.5
v -0.5 3 -1.5
v -0.5 3 -2.5
v -0.5 5 0.5
v -0.5 5 -0.5
v -0.5 8 2.5
v -0.5 8 0.5
v -0.5 8 -0.5
v -0.5 8 -2.5
v -0.5 24 2.5
v -0.5 24 0.5
v -0.5 24 -0.5
v -0.5 24 -2.5
v -0.5 25 1.5
v -0.5 25 -1.5
v -0.5 26 1.5
v -0.5 26 -1.5
v -0.5 27 2.5
v -0.5 27 -2.5
v -0.5 0 1.5
v -0.5 0 -1.5
v -0.5 1 1.5
v -0.5 1 -1.5
v 0.5 1 2.5
v 0.5 1 -2.5
v 0.5 3 3.5
v 0.5 3 2.5
v 0.5 3 1.5
v 0.5 3 -1.5
v 0.5 3 -2.5
v 0.5 3 -3.5
v 0.5 5 2.5
v 0.5 5 1.5
v 0.5 5 -1.5
v 0.5 5 -2.5
v 0.5 8 3.5
v 0.5 8 2.5
v 0.5 8 0.5
v 0.5 8 -0.5
v 0.5 8 -2.5
v 0.5 8 -3.5
v 0.5 24 2.5
v 0.5 24 0.5
v 0.5 24 -0.5
v 0.5 24 -2.5
v 0.5 25 1.5
v 0.5 25 -1.5
v 0.5 26 1.5
v 0.5 26 -1.5
v 0.5 27 2.5
v 0.5 27 -2.5
v 1.5 3 1.5
v 1.5 3 -1.5
v 1.5 5 2.5
v 1.5 5 1.5
v 1.5 5 -1.5
v 1.5 5 -2.5
v 1.5 8 2.5
v 1.5 8 -2.5
v -1.5 3 3.5
v -1.5 8 3.5
v 0.5 3 3.5
v 0.5 8 3.5
v -1.5 1 2.5
v -1.5 3 2.5
v -0.5 24 2.5
v -0.5 27 2.5
v 0.5 1 2.5
v 0.5 3 2.5
v 0.5 5 2.5
v 0.5 8 2.5
v 0.5 24 2.5
v 0.5 27 2.5
v 1.5 5 2.5
v 1.5 8 2.5
v -1.5 0 1.5
v -1.5 1 1.5
v -0.5 0 1.5
v -0.5 1 1.5
v 0.5 3 1.5
v 0.5 5 1.5
v 1.5 3 1.5
v 1.5 5 1.5
v -1.5 5 0.5
v -1.5 8 0.5
v -0.5 5 0.5
v -0.5 8 0.5
v -0.5 24 0.5
v 0.5 8 0.5
v 0.5 24 0.5
v -1.5 1 -1.5
v -1.5 3 -1.5
v -0.5 1 -1.5
v -0.5 3 -1.5
v -0.5 25 -1.5
v -0.5 26 -1.5
v 0.5 25 -1.5
v 0.5 26 -1.5
v -1.5 3 -2.5
v -1.5 8 -2.5
v -0.5 3 -2.5
v -0.5 8 -2.5
v -1.5 3 2.5
v -1.5 8 2.5
v -0.5 3 2.5
v -0.5 8 2.5
v -1.5 1 1.5
v -1.5 3 1.5
v -0.5 1 1.5
v -0.5 3 1.5
v -0.5 25 1.5
v -0.5 26 1.5
v 0.5 25 1.5
v 0.5 26 1.5
v -1.5 5 -0.5
v -1.5 8 -0.5
v -0.5 5 -0.5
v -0.5 8 -0.5
v -0.5 24 -0.5
v 0.5 8 -0.5
v 0.5 24 -0.5
v -1.5 0 -1.5
v -1.5 1 -1.5
v -0.5 0 -1.5
v -0.5 1 -1.5
v 0.5 3 -1.5
v 0.5 5 -1.5
v 1.5 3 -1.5
v 1.5 5 -1.5
v -1.5 1 -2.5
v -1.5 3 -2.5
v -0.5 24 -2.5
v -0.5 27 -2.5
v 0.5 1 -2.5
v 0.5 3 -2.5
v 0.5 5 -2.5
v 0.5 8 -2.5
v 0.5 24 -2.5
v 0.5 27 -2.5
v 1.5 5 -2.5
v 1.5 8 -2.5
v -1.5 3 -3.5
v -1.5 8 -3.5
v 0.5 3 -3.5
v 0.5 8 -3.5
v -1.5 0 1.5
v -0.5 0 1.5
v -1.5 0 -1.5
v -0.5 0 -1.5
v -1.5 1 2.5
v 0.5 1 2.5
v -1.5 1 1.5
v -0.5 1 1.5
v -1.5 1 -1.5
v -0.5 1 -1.5
v -1.5 1 -2.5
v 0.5 1 -2.5
v -1.5 3 3.5
v 0.5 3 3.5
v -1.5 3 2.5
v 0.5 3 2.5
v 0.5 3 1.5
v 1.5 3 1.5
v 0.5 3 -1.5
v 1.5 3 -1.5
v -1.5 3 -2.5
v 0.5 3 -2.5
v -1.5 3 -3.5
v 0.5 3 -3.5
v 0.5 5 2.5
v 1.5 5 2.5
v 0.5 5 1.5
v 1.5 5 1.5
v -1.5 5 0.5
v -0.5 5 0.5
v -1.5 5 -0.5
v -0.5 5 -0.5
v 0.5 5 -1.5
v 1.5 5 -1.5
v 0.5 5 -2.5
v 1.5 5 -2.5
v -0.5 24 2.5
v 0.5 24 2.5
v -0.5 24 0.5
v 0.5 24 0.5
v -0.5 24 -0.5
v 0.5 24 -0.5
v -0.5 24 -2.5
v 0.5 24 -2.5
v -0.5 26 1.5
v 0.5 26 1.5
v -0.5 26 -1.5
v 0.5 26 -1.5
v -1.5 1 1.5
v -0.5 1 1.5
v -1.5 1 -1.5
v -0.5 1 -1.5
v -1.5 3 2.5
v -0.5 3 2.5
v -1.5 3 1.5
v -0.5 3 1.5
v -1.5 3 -1.5
v -0.5 3 -1.5
v -1.5 3 -2.5
v -0.5 3 -2.5
v -1.5 8 3.5
v 0.5 8 3.5
v -1.5 8 2.5
v -0.5 8 2.5
v 0.5 8 2.5
v 1.5 8 2.5
v -1.5 8 0.5
v -0.5 8 0.5
v 0.5 8 0.5
v -1.5 8 -0.5
v -0.5 8 -0.5
v 0.5 8 -0.5
v -1.5 8 -2.5
v -0.5 8 -2.5
v 0.5 8 -2.5
v 1.5 8 -2.5
v -1.5 8 -3.5
v 0.5 8 -3.5
v -0.5 25 1.5
v 0.5 25 1.5
v -0.5 25 -1.5
v 0.5 25 -1.5
v -0.5 27 2.5
v 0.5 27 2.5
v -0.5 27 -2.5
v 0.5 27 -2.5

# faces
f 4/1/1 2/1/1 1/1/1
f 5/1/1 2/1/1 4/1/1
f 8/1/1 4/1/1 3/1/1
f 9/1/1 4/1/1 8/1/1
f 10/1/1 6/1/1 5/1/1
f 11/1/1 6/1/1 10/1/1
f 15/1/1 8/1/1 7/1/1
f 16/1/1 8/1/1 15/1/1
f 17/1/1 14/1/1 13/1/1
f 18/1/1 14/1/1 17/1/1
f 19/1/1 12/1/1 11/1/1
f 20/1/1 12/1/1 19/1/1
f 24/1/1 22/1/1 21/1/1
f 25/1/1 22/1/1 24/1/1
f 27/1/1 24/1/1 23/1/1
f 27/1/1 26/1/1 25/1/1
f 27/1/1 25/1/1 24/1/1
f 28/1/1 26/1/1 27/1/1
f 29/1/1 27/1/1 23/1/1
f 30/1/1 27/1/1 29/1/1
f 31/1/1 26/1/1 28/1/1
f 32/1/1 26/1/1 31/1/1
f 34/2/1 31/2/1 30/2/1
f 35/2/1 31/2/1 34/2/1
f 37/2/1 34/2/1 33/2/1
f 37/2/1 36/2/1 35/2/1
f 37/2/1 35/2/1 34/2/1
f 38/2/1 36/2/1 37/2/1
f 39/2/1 37/2/1 33/2/1
f 40/2/1 36/2/1 38/2/1
f 41/2/1 39/2/1 33/2/1
f 41/2/1 40/2/1 39/2/1
f 42/2/1 36/2/1 40/2/1
f 42/2/1 40/2/1 41/2/1
f 43/1/2 44/1/2 45/1/2
f 45/1/2 44/1/2 46/1/2
f 47/1/2 48/1/2 50/1/2
f 50/1/2 48/1/2 51/1/2
f 51/1/2 48/1/2 52/1/2
f 52/1/2 48/1/2 53/1/2
f 49/1/2 50/1/2 55/1/2
f 50/1/2 51/1/2 55/1/2
f 55/1/2 51/1/2 56/1/2
f 53/1/2 54/1/2 57/1/2
f 52/1/2 53/1/2 57/1/2
f 57/1/2 54/1/2 58/1/2
f 49/1/2 55/1/2 59/1/2
f 59/1/2 55/1/2 60/1/2
f 58/1/2 54/1/2 63/1/2
f 63/1/2 54/1/2 64/1/2
f 61/2/2 62/2/2 66/2/2
f 66/2/2 62/2/2 67/2/2
f 65/2/2 66/2/2 69/2/2
f 67/2/2 68/2/2 69/2/2
f 66/2/2 67/2/2 69/2/2
f 69/2/2 68/2/2 70/2/2
f 65/2/2 69/2/2 71/2/2
f 70/2/2 68/2/2 72/2/2
f 65/2/2 71/2/2 73/2/2
f 71/2/2 72/2/2 73/2/2
f 72/2/2 68/2/2 74/2/2
f 73/2/2 72/2/2 74/2/2
f 75/1/2 76/1/2 78/1/2
f 78/1/2 76/1/2 79/1/2
f 77/1/2 78/1/2 81/1/2
f 79/1/2 80/1/2 81/1/2
f 78/1/2 79/1/2 81/1/2
f 81/1/2 80/1/2 82/1/2
f 85/1/3 84/1/3 83/1/3
f 86/1/3 84/1/3 85/1/3
f 91/1/3 88/1/3 87/1/3
f 92/1/3 88/1/3 91/1/3
f 95/2/3 90/2/3 89/2/3
f 96/2/3 90/2/3 95/2/3
f 97/1/3 94/1/3 93/1/3
f 98/1/3 94/1/3 97/1/3
f 101/1/3 100/1/3 99/1/3
f 102/1/3 100/1/3 101/1/3
f 105/1/3 104/1/3 103/1/3
f 106/1/3 104/1/3 105/1/3
f 109/1/3 108/1/3 107/1/3
f 110/1/3 108/1/3 109/1/3
f 112/2/3 111/2/3 110/2/3
f 113/2/3 111/2/3 112/2/3
f 116/1/3 115/1/3 114/1/3
f 117/1/3 115/1/3 116/1/3
f 120/2/3 119/2/3 118/2/3
f 121/2/3 119/2/3 120/2/3
f 124/1/3 123/1/3 122/1/3
f 125/1/3 123/1/3 124/1/3
f 126/1/4 127/1/4 128/1/4
f 128/1/4 127/1/4 129/1/4
f 130/1/4 131/1/4 132/1/4
f 132/1/4 131/1/4 133/1/4
f 134/2/4 135/2/4 136/2/4
f 136/2/4 135/2/4 137/2/4
f 138/1/4 139/1/4 140/1/4
f 140/1/4 139/1/4 141/1/4
f 141/2/4 142/2/4 143/2/4
f 143/2/4 142/2/4 144/2/4
f 145/1/4 146/1/4 147/1/4
f 147/1/4 146/1/4 148/1/4
f 149/1/4 150/1/4 151/1/4
f 151/1/4 150/1/4 152/1/4
f 153/1/4 154/1/4 157/1/4
f 157/1/4 154/1/4 158/1/4
f 155/2/4 156/2/4 161/2/4
f 161/2/4 156/2/4 162/2/4
f 159/1/4 160/1/4 163/1/4
f 163/1/4 160/1/4 164/1/4
f 165/1/4 166/1/4 167/1/4
f 167/1/4 166/1/4 168/1/4
f 171/1/5 170/1/5 169/1/5
f 172/1/5 170/1/5 171/1/5
f 175/1/5 174/1/5 173/1/5
f 176/1/5 174/1/5 175/1/5
f 178/1/5 174/1/5 176/1/5
f 179/1/5 178/1/5 177/1/5
f 180/1/5 174/1/5 178/1/5
f 180/1/5 178/1/5 179/1/5
f 183/1/5 182/1/5 181/1/5
f 184/1/5 182/1/5 183/1/5
f 187/1/5 186/1/5 185/1/5
f 188/1/5 186/1/5 187/1/5
f 191/1/5 190/1/5 189/1/5
f 192/1/5 190/1/5 191/1/5
f 195/1/5 194/1/5 193/1/5
f 196/1/5 194/1/5 195/1/5
f 199/1/5 198/1/5 197/1/5
f 200/1/5 198/1/5 199/1/5
f 203/1/5 202/1/5 201/1/5
f 204/1/5 202/1/5 203/1/5
f 207/2/5 206/2/5 205/2/5
f 208/2/5 206/2/5 207/2/5
f 211/2/5 210/2/5 209/2/5
f 212/2/5 210/2/5 211/2/5
f 215/2/5 214/2/5 213/2/5
f 216/2/5 214/2/5 215/2/5
f 217/1/6 218/1/6 219/1/6
f 219/1/6 218/1/6 220/1/6
f 221/1/6 222/1/6 223/1/6
f 223/1/6 222/1/6 224/1/6
f 225/1/6 226/1/6 227/1/6
f 227/1/6 226/1/6 228/1/6
f 229/1/6 230/1/6 231/1/6
f 231/1/6 230/1/6 232/1/6
f 232/1/6 230/1/6 233/1/6
f 233/1/6 234/1/6 236/1/6
f 232/1/6 233/1/6 236/1/6
f 236/1/6 234/1/6 237/1/6
f 235/1/6 236/1/6 238/1/6
f 238/1/6 236/1/6 239/1/6
f 237/1/6 234/1/6 240/1/6
f 239/1/6 240/1/6 242/1/6
f 240/1/6 234/1/6 243/1/6
f 242/1/6 240/1/6 243/1/6
f 243/1/6 234/1/6 244/1/6
f 241/1/6 242/1/6 245/1/6
f 242/1/6 243/1/6 245/1/6
f 245/1/6 243/1/6 246/1/6
f 247/2/6 248/2/6 249/2/6
f 249/2/6 248/2/6 250/2/6
f 251/2/6 252/2/6 253/2/6
f 253/2/6 252/2/6 254/2/6
